<mxfile host="65bd71144e">
    <diagram id="Yp-ViVtBDAhMEWTZbXII" name="Page-1">
        <mxGraphModel dx="560" dy="2113" grid="1" gridSize="10" guides="1" tooltips="1" connect="1" arrows="1" fold="1" page="1" pageScale="1" pageWidth="850" pageHeight="1100" math="0" shadow="0">
            <root>
                <mxCell id="0"/>
                <mxCell id="1" parent="0"/>
                <mxCell id="149" value="" style="rounded=0;whiteSpace=wrap;html=1;labelBackgroundColor=#E6E6E6;fontFamily=Courier New;fontSize=12;" vertex="1" parent="1">
                    <mxGeometry width="340" height="180" as="geometry"/>
                </mxCell>
                <mxCell id="150" value="seven-segment" style="text;html=1;align=center;verticalAlign=middle;resizable=0;points=[];autosize=1;strokeColor=none;fillColor=none;fontSize=12;fontFamily=Courier New;fontColor=#1A1A1A;" vertex="1" parent="1">
                    <mxGeometry x="17.5" width="120" height="30" as="geometry"/>
                </mxCell>
                <mxCell id="151" value="seven-segment + dot" style="text;html=1;align=center;verticalAlign=middle;resizable=0;points=[];autosize=1;strokeColor=none;fillColor=none;fontSize=12;fontFamily=Courier New;fontColor=#1A1A1A;" vertex="1" parent="1">
                    <mxGeometry x="170" width="160" height="30" as="geometry"/>
                </mxCell>
                <mxCell id="152" value="" style="group" vertex="1" connectable="0" parent="1">
                    <mxGeometry x="200" y="40" width="75" height="124" as="geometry"/>
                </mxCell>
                <mxCell id="50" value="" style="rounded=1;whiteSpace=wrap;html=1;fillColor=#f5f5f5;fontColor=#333333;strokeColor=#666666;" vertex="1" parent="152">
                    <mxGeometry x="5" y="10" width="70" height="90" as="geometry"/>
                </mxCell>
                <mxCell id="51" value="" style="rounded=1;whiteSpace=wrap;html=1;fillColor=#1A1A1A;fontColor=#333333;strokeColor=#666666;" vertex="1" parent="152">
                    <mxGeometry x="5" width="70" height="90" as="geometry"/>
                </mxCell>
                <mxCell id="60" value="" style="endArrow=none;html=1;fontFamily=Courier New;fontColor=#FFFFFF;" edge="1" parent="152">
                    <mxGeometry width="50" height="50" relative="1" as="geometry">
                        <mxPoint x="16.879999999999995" y="110" as="sourcePoint"/>
                        <mxPoint x="16.799999999999955" y="100" as="targetPoint"/>
                    </mxGeometry>
                </mxCell>
                <mxCell id="61" value="" style="endArrow=none;html=1;fontFamily=Courier New;fontColor=#FFFFFF;" edge="1" parent="152">
                    <mxGeometry width="50" height="50" relative="1" as="geometry">
                        <mxPoint x="22.959999999999923" y="110" as="sourcePoint"/>
                        <mxPoint x="22.88000000000011" y="100" as="targetPoint"/>
                    </mxGeometry>
                </mxCell>
                <mxCell id="62" value="" style="endArrow=none;html=1;fontFamily=Courier New;fontColor=#FFFFFF;" edge="1" parent="152">
                    <mxGeometry width="50" height="50" relative="1" as="geometry">
                        <mxPoint x="28.839999999999918" y="110" as="sourcePoint"/>
                        <mxPoint x="28.759999999999877" y="100" as="targetPoint"/>
                    </mxGeometry>
                </mxCell>
                <mxCell id="63" value="" style="endArrow=none;html=1;fontFamily=Courier New;fontColor=#FFFFFF;" edge="1" parent="152">
                    <mxGeometry width="50" height="50" relative="1" as="geometry">
                        <mxPoint x="34.91999999999973" y="110" as="sourcePoint"/>
                        <mxPoint x="34.83999999999992" y="100" as="targetPoint"/>
                    </mxGeometry>
                </mxCell>
                <mxCell id="64" value="" style="endArrow=none;html=1;fontFamily=Courier New;fontColor=#FFFFFF;" edge="1" parent="152">
                    <mxGeometry width="50" height="50" relative="1" as="geometry">
                        <mxPoint x="41.07999999999993" y="110" as="sourcePoint"/>
                        <mxPoint x="41" y="100" as="targetPoint"/>
                    </mxGeometry>
                </mxCell>
                <mxCell id="65" value="" style="endArrow=none;html=1;fontFamily=Courier New;fontColor=#FFFFFF;" edge="1" parent="152">
                    <mxGeometry width="50" height="50" relative="1" as="geometry">
                        <mxPoint x="47.15999999999997" y="110" as="sourcePoint"/>
                        <mxPoint x="47.080000000000155" y="100" as="targetPoint"/>
                    </mxGeometry>
                </mxCell>
                <mxCell id="66" value="" style="endArrow=none;html=1;fontFamily=Courier New;fontColor=#FFFFFF;" edge="1" parent="152">
                    <mxGeometry width="50" height="50" relative="1" as="geometry">
                        <mxPoint x="53.039999999999964" y="110" as="sourcePoint"/>
                        <mxPoint x="52.95999999999992" y="100" as="targetPoint"/>
                    </mxGeometry>
                </mxCell>
                <mxCell id="67" value="" style="endArrow=none;html=1;fontFamily=Courier New;fontColor=#FFFFFF;" edge="1" parent="152">
                    <mxGeometry width="50" height="50" relative="1" as="geometry">
                        <mxPoint x="59.11999999999978" y="110" as="sourcePoint"/>
                        <mxPoint x="59.039999999999964" y="100" as="targetPoint"/>
                    </mxGeometry>
                </mxCell>
                <mxCell id="68" value="a" style="text;html=1;align=center;verticalAlign=middle;resizable=0;points=[];autosize=1;strokeColor=none;fillColor=none;fontSize=8;fontFamily=Courier New;fontColor=#1A1A1A;" vertex="1" parent="152">
                    <mxGeometry y="104" width="30" height="20" as="geometry"/>
                </mxCell>
                <mxCell id="69" value="b" style="text;html=1;align=center;verticalAlign=middle;resizable=0;points=[];autosize=1;strokeColor=none;fillColor=none;fontSize=8;fontFamily=Courier New;fontColor=#1A1A1A;" vertex="1" parent="152">
                    <mxGeometry x="7" y="104" width="30" height="20" as="geometry"/>
                </mxCell>
                <mxCell id="70" value="c" style="text;html=1;align=center;verticalAlign=middle;resizable=0;points=[];autosize=1;strokeColor=none;fillColor=none;fontSize=8;fontFamily=Courier New;fontColor=#1A1A1A;" vertex="1" parent="152">
                    <mxGeometry x="13" y="104" width="30" height="20" as="geometry"/>
                </mxCell>
                <mxCell id="71" value="d" style="text;html=1;align=center;verticalAlign=middle;resizable=0;points=[];autosize=1;strokeColor=none;fillColor=none;fontSize=8;fontFamily=Courier New;fontColor=#1A1A1A;" vertex="1" parent="152">
                    <mxGeometry x="20" y="104" width="30" height="20" as="geometry"/>
                </mxCell>
                <mxCell id="72" value="e" style="text;html=1;align=center;verticalAlign=middle;resizable=0;points=[];autosize=1;strokeColor=none;fillColor=none;fontSize=8;fontFamily=Courier New;fontColor=#1A1A1A;" vertex="1" parent="152">
                    <mxGeometry x="26" y="104" width="30" height="20" as="geometry"/>
                </mxCell>
                <mxCell id="73" value="f" style="text;html=1;align=center;verticalAlign=middle;resizable=0;points=[];autosize=1;strokeColor=none;fillColor=none;fontSize=8;fontFamily=Courier New;fontColor=#1A1A1A;" vertex="1" parent="152">
                    <mxGeometry x="32" y="104" width="30" height="20" as="geometry"/>
                </mxCell>
                <mxCell id="74" value="g" style="text;html=1;align=center;verticalAlign=middle;resizable=0;points=[];autosize=1;strokeColor=none;fillColor=none;fontSize=8;fontFamily=Courier New;fontColor=#1A1A1A;" vertex="1" parent="152">
                    <mxGeometry x="38" y="104" width="30" height="20" as="geometry"/>
                </mxCell>
                <mxCell id="75" value="h" style="text;html=1;align=center;verticalAlign=middle;resizable=0;points=[];autosize=1;strokeColor=none;fillColor=none;fontSize=8;fontFamily=Courier New;fontColor=#1A1A1A;" vertex="1" parent="152">
                    <mxGeometry x="44" y="104" width="30" height="20" as="geometry"/>
                </mxCell>
                <mxCell id="7" value="" style="verticalLabelPosition=bottom;shadow=0;dashed=0;align=center;html=1;verticalAlign=top;shape=mxgraph.electrical.opto_electronics.7_segment_display_with_dp;pointerEvents=1;rounded=0;fillColor=#FF6666;strokeColor=#990000;" vertex="1" parent="152">
                    <mxGeometry x="13.550000000000068" y="5" width="54.9" height="80" as="geometry"/>
                </mxCell>
                <mxCell id="53" value="a" style="text;html=1;align=center;verticalAlign=middle;whiteSpace=wrap;rounded=0;fontFamily=Courier New;fontColor=#FFFFFF;" vertex="1" parent="152">
                    <mxGeometry x="35" width="20" height="20" as="geometry"/>
                </mxCell>
                <mxCell id="54" value="b" style="text;html=1;align=center;verticalAlign=middle;whiteSpace=wrap;rounded=0;fontFamily=Courier New;fontColor=#FFFFFF;" vertex="1" parent="152">
                    <mxGeometry x="49" y="19" width="20" height="20" as="geometry"/>
                </mxCell>
                <mxCell id="139" value="" style="edgeStyle=none;html=1;fontFamily=Courier New;fontSize=12;fontColor=#9999FF;" edge="1" parent="152" source="55" target="53">
                    <mxGeometry relative="1" as="geometry"/>
                </mxCell>
                <mxCell id="55" value="c" style="text;html=1;align=center;verticalAlign=middle;whiteSpace=wrap;rounded=0;fontFamily=Courier New;fontColor=#FFFFFF;" vertex="1" parent="152">
                    <mxGeometry x="45" y="51" width="20" height="20" as="geometry"/>
                </mxCell>
                <mxCell id="56" value="d" style="text;html=1;align=center;verticalAlign=middle;whiteSpace=wrap;rounded=0;fontFamily=Courier New;fontColor=#FFFFFF;" vertex="1" parent="152">
                    <mxGeometry x="26" y="70" width="20" height="20" as="geometry"/>
                </mxCell>
                <mxCell id="57" value="e" style="text;html=1;align=center;verticalAlign=middle;whiteSpace=wrap;rounded=0;fontFamily=Courier New;fontColor=#FFFFFF;" vertex="1" parent="152">
                    <mxGeometry x="11" y="51" width="20" height="20" as="geometry"/>
                </mxCell>
                <mxCell id="58" value="f" style="text;html=1;align=center;verticalAlign=middle;whiteSpace=wrap;rounded=0;fontFamily=Courier New;fontColor=#FFFFFF;" vertex="1" parent="152">
                    <mxGeometry x="15" y="19" width="20" height="20" as="geometry"/>
                </mxCell>
                <mxCell id="59" value="g" style="text;html=1;align=center;verticalAlign=middle;whiteSpace=wrap;rounded=0;fontFamily=Courier New;fontColor=#FFFFFF;" vertex="1" parent="152">
                    <mxGeometry x="30" y="34" width="20" height="20" as="geometry"/>
                </mxCell>
                <mxCell id="76" value="h" style="text;html=1;align=center;verticalAlign=middle;whiteSpace=wrap;rounded=0;fontFamily=Courier New;fontColor=#FFFFFF;fontSize=12;" vertex="1" parent="152">
                    <mxGeometry x="54" y="70" width="20" height="20" as="geometry"/>
                </mxCell>
                <mxCell id="153" value="" style="group" vertex="1" connectable="0" parent="1">
                    <mxGeometry x="40" y="40" width="75" height="124" as="geometry"/>
                </mxCell>
                <mxCell id="3" value="" style="rounded=1;whiteSpace=wrap;html=1;fillColor=#f5f5f5;fontColor=#333333;strokeColor=#666666;" vertex="1" parent="153">
                    <mxGeometry x="5" y="10" width="70" height="90" as="geometry"/>
                </mxCell>
                <mxCell id="9" value="" style="rounded=1;whiteSpace=wrap;html=1;fillColor=#1A1A1A;fontColor=#333333;strokeColor=#666666;" vertex="1" parent="153">
                    <mxGeometry x="5" width="70" height="90" as="geometry"/>
                </mxCell>
                <mxCell id="6" value="" style="verticalLabelPosition=bottom;shadow=0;dashed=0;align=center;html=1;verticalAlign=top;shape=mxgraph.electrical.opto_electronics.7_segment_display;pointerEvents=1;fillColor=#FF6666;strokeColor=#990000;" vertex="1" parent="153">
                    <mxGeometry x="15" y="5" width="50" height="80" as="geometry"/>
                </mxCell>
                <mxCell id="14" value="a" style="text;html=1;align=center;verticalAlign=middle;whiteSpace=wrap;rounded=0;fontFamily=Courier New;fontColor=#FFFFFF;" vertex="1" parent="153">
                    <mxGeometry x="35" width="20" height="20" as="geometry"/>
                </mxCell>
                <mxCell id="15" value="b" style="text;html=1;align=center;verticalAlign=middle;whiteSpace=wrap;rounded=0;fontFamily=Courier New;fontColor=#FFFFFF;" vertex="1" parent="153">
                    <mxGeometry x="49" y="19" width="20" height="20" as="geometry"/>
                </mxCell>
                <mxCell id="16" value="c" style="text;html=1;align=center;verticalAlign=middle;whiteSpace=wrap;rounded=0;fontFamily=Courier New;fontColor=#FFFFFF;" vertex="1" parent="153">
                    <mxGeometry x="45" y="51" width="20" height="20" as="geometry"/>
                </mxCell>
                <mxCell id="17" value="d" style="text;html=1;align=center;verticalAlign=middle;whiteSpace=wrap;rounded=0;fontFamily=Courier New;fontColor=#FFFFFF;" vertex="1" parent="153">
                    <mxGeometry x="26" y="70" width="20" height="20" as="geometry"/>
                </mxCell>
                <mxCell id="18" value="e" style="text;html=1;align=center;verticalAlign=middle;whiteSpace=wrap;rounded=0;fontFamily=Courier New;fontColor=#FFFFFF;" vertex="1" parent="153">
                    <mxGeometry x="11" y="51" width="20" height="20" as="geometry"/>
                </mxCell>
                <mxCell id="19" value="f" style="text;html=1;align=center;verticalAlign=middle;whiteSpace=wrap;rounded=0;fontFamily=Courier New;fontColor=#FFFFFF;" vertex="1" parent="153">
                    <mxGeometry x="15" y="19" width="20" height="20" as="geometry"/>
                </mxCell>
                <mxCell id="20" value="g" style="text;html=1;align=center;verticalAlign=middle;whiteSpace=wrap;rounded=0;fontFamily=Courier New;fontColor=#FFFFFF;" vertex="1" parent="153">
                    <mxGeometry x="30" y="34" width="20" height="20" as="geometry"/>
                </mxCell>
                <mxCell id="32" value="" style="endArrow=none;html=1;fontFamily=Courier New;fontColor=#FFFFFF;" edge="1" parent="153">
                    <mxGeometry width="50" height="50" relative="1" as="geometry">
                        <mxPoint x="16.879999999999995" y="110" as="sourcePoint"/>
                        <mxPoint x="16.80000000000001" y="100" as="targetPoint"/>
                    </mxGeometry>
                </mxCell>
                <mxCell id="33" value="" style="endArrow=none;html=1;fontFamily=Courier New;fontColor=#FFFFFF;" edge="1" parent="153">
                    <mxGeometry width="50" height="50" relative="1" as="geometry">
                        <mxPoint x="22.95999999999998" y="110" as="sourcePoint"/>
                        <mxPoint x="22.880000000000052" y="100" as="targetPoint"/>
                    </mxGeometry>
                </mxCell>
                <mxCell id="34" value="" style="endArrow=none;html=1;fontFamily=Courier New;fontColor=#FFFFFF;" edge="1" parent="153">
                    <mxGeometry width="50" height="50" relative="1" as="geometry">
                        <mxPoint x="28.839999999999975" y="110" as="sourcePoint"/>
                        <mxPoint x="28.760000000000048" y="100" as="targetPoint"/>
                    </mxGeometry>
                </mxCell>
                <mxCell id="35" value="" style="endArrow=none;html=1;fontFamily=Courier New;fontColor=#FFFFFF;" edge="1" parent="153">
                    <mxGeometry width="50" height="50" relative="1" as="geometry">
                        <mxPoint x="34.9199999999999" y="110" as="sourcePoint"/>
                        <mxPoint x="34.839999999999975" y="100" as="targetPoint"/>
                    </mxGeometry>
                </mxCell>
                <mxCell id="36" value="" style="endArrow=none;html=1;fontFamily=Courier New;fontColor=#FFFFFF;" edge="1" parent="153">
                    <mxGeometry width="50" height="50" relative="1" as="geometry">
                        <mxPoint x="41.079999999999984" y="110" as="sourcePoint"/>
                        <mxPoint x="40.99999999999994" y="100" as="targetPoint"/>
                    </mxGeometry>
                </mxCell>
                <mxCell id="37" value="" style="endArrow=none;html=1;fontFamily=Courier New;fontColor=#FFFFFF;" edge="1" parent="153">
                    <mxGeometry width="50" height="50" relative="1" as="geometry">
                        <mxPoint x="47.160000000000025" y="110" as="sourcePoint"/>
                        <mxPoint x="47.0800000000001" y="100" as="targetPoint"/>
                    </mxGeometry>
                </mxCell>
                <mxCell id="38" value="" style="endArrow=none;html=1;fontFamily=Courier New;fontColor=#FFFFFF;" edge="1" parent="153">
                    <mxGeometry width="50" height="50" relative="1" as="geometry">
                        <mxPoint x="53.03999999999991" y="110" as="sourcePoint"/>
                        <mxPoint x="52.95999999999998" y="100" as="targetPoint"/>
                    </mxGeometry>
                </mxCell>
                <mxCell id="42" value="a" style="text;html=1;align=center;verticalAlign=middle;resizable=0;points=[];autosize=1;strokeColor=none;fillColor=none;fontSize=8;fontFamily=Courier New;fontColor=#1A1A1A;" vertex="1" parent="153">
                    <mxGeometry y="104" width="30" height="20" as="geometry"/>
                </mxCell>
                <mxCell id="43" value="b" style="text;html=1;align=center;verticalAlign=middle;resizable=0;points=[];autosize=1;strokeColor=none;fillColor=none;fontSize=8;fontFamily=Courier New;fontColor=#1A1A1A;" vertex="1" parent="153">
                    <mxGeometry x="7" y="104" width="30" height="20" as="geometry"/>
                </mxCell>
                <mxCell id="44" value="c" style="text;html=1;align=center;verticalAlign=middle;resizable=0;points=[];autosize=1;strokeColor=none;fillColor=none;fontSize=8;fontFamily=Courier New;fontColor=#1A1A1A;" vertex="1" parent="153">
                    <mxGeometry x="13" y="104" width="30" height="20" as="geometry"/>
                </mxCell>
                <mxCell id="45" value="d" style="text;html=1;align=center;verticalAlign=middle;resizable=0;points=[];autosize=1;strokeColor=none;fillColor=none;fontSize=8;fontFamily=Courier New;fontColor=#1A1A1A;" vertex="1" parent="153">
                    <mxGeometry x="20" y="104" width="30" height="20" as="geometry"/>
                </mxCell>
                <mxCell id="46" value="e" style="text;html=1;align=center;verticalAlign=middle;resizable=0;points=[];autosize=1;strokeColor=none;fillColor=none;fontSize=8;fontFamily=Courier New;fontColor=#1A1A1A;" vertex="1" parent="153">
                    <mxGeometry x="26" y="104" width="30" height="20" as="geometry"/>
                </mxCell>
                <mxCell id="47" value="f" style="text;html=1;align=center;verticalAlign=middle;resizable=0;points=[];autosize=1;strokeColor=none;fillColor=none;fontSize=8;fontFamily=Courier New;fontColor=#1A1A1A;" vertex="1" parent="153">
                    <mxGeometry x="32" y="104" width="30" height="20" as="geometry"/>
                </mxCell>
                <mxCell id="48" value="g" style="text;html=1;align=center;verticalAlign=middle;resizable=0;points=[];autosize=1;strokeColor=none;fillColor=none;fontSize=8;fontFamily=Courier New;fontColor=#1A1A1A;" vertex="1" parent="153">
                    <mxGeometry x="38" y="104" width="30" height="20" as="geometry"/>
                </mxCell>
                <mxCell id="155" value="" style="endArrow=none;dashed=1;html=1;dashPattern=1 3;strokeWidth=2;fontFamily=Courier New;fontSize=13;fontColor=none;" edge="1" parent="1">
                    <mxGeometry width="50" height="50" relative="1" as="geometry">
                        <mxPoint x="160" y="170" as="sourcePoint"/>
                        <mxPoint x="160" y="20" as="targetPoint"/>
                    </mxGeometry>
                </mxCell>
            </root>
        </mxGraphModel>
    </diagram>
</mxfile>